<svg width="320" height="84" viewBox="0 0 320 84" fill="none" xmlns="http://www.w3.org/2000/svg">
  <rect width="320" height="84" rx="18" fill="white"/>
  <circle cx="28" cy="28" r="24" fill="#0FB7AE"/>
  <path d="M17 30C17 20.6112 24.6112 13 34 13H39V22H34C29.0294 22 25 26.0294 25 31V44H17V30Z" fill="white"/>
  <circle cx="48" cy="24" r="7" fill="#0FB7AE"/>
  <path d="M70 18H91C101.493 18 110 26.5066 110 37C110 47.4934 101.493 56 91 56H80V74H70V18ZM80 27V47H91C96.5228 47 101 42.5228 101 37C101 31.4772 96.5228 27 91 27H80Z" fill="#111827"/>
  <path d="M118 29H128V56H118V29ZM123 17C126.314 17 129 19.6863 129 23C129 26.3137 126.314 29 123 29C119.686 29 117 26.3137 117 23C117 19.6863 119.686 17 123 17Z" fill="#111827"/>
  <path d="M147.5 28C156.742 28 164.5 34.7157 166.133 43.5H156.028C154.78 39.777 151.261 37 147 37C141.686 37 137.5 41.4772 137.5 47C137.5 52.5228 141.686 57 147 57C151.261 57 154.78 54.223 156.028 50.5H166.133C164.5 59.2843 156.742 66 147.5 66C136.73 66 128 57.4934 128 47C128 36.5066 136.73 28 147.5 28Z" fill="#111827"/>
  <path d="M172 29H182V65H172V29Z" fill="#111827"/>
  <path d="M204.5 28C215.27 28 224 36.5066 224 47C224 57.4934 215.27 66 204.5 66C193.73 66 185 57.4934 185 47C185 36.5066 193.73 28 204.5 28ZM204.5 37C199.186 37 195 41.4772 195 47C195 52.5228 199.186 57 204.5 57C209.814 57 214 52.5228 214 47C214 41.4772 209.814 37 204.5 37Z" fill="#111827"/>
  <path d="M245.5 28C254.742 28 262.5 34.7157 264.133 43.5H254.028C252.78 39.777 249.261 37 245 37C239.686 37 235.5 41.4772 235.5 47C235.5 52.5228 239.686 57 245 57C249.261 57 252.78 54.223 254.028 50.5H264.133C262.5 59.2843 254.742 66 245.5 66C234.73 66 226 57.4934 226 47C226 36.5066 234.73 28 245.5 28Z" fill="#111827"/>
  <text x="70" y="74" fill="#374151" font-family="Arial, sans-serif" font-size="14" font-weight="700">Total Brand Activation</text>
</svg>
