<svg xmlns="http://www.w3.org/2000/svg" viewBox="0 0 640 640" role="img" aria-labelledby="title desc">
  <title id="title">Product image placeholder</title>
  <desc id="desc">Placeholder shown when a catalog image is unavailable.</desc>
  <defs>
    <linearGradient id="bg" x1="0" y1="0" x2="1" y2="1">
      <stop offset="0%" stop-color="#f8fffe"/>
      <stop offset="100%" stop-color="#eef8f6"/>
    </linearGradient>
  </defs>
  <rect width="640" height="640" rx="40" fill="url(#bg)"/>
  <rect x="84" y="84" width="472" height="472" rx="28" fill="#ffffff" stroke="#d8ebe7" stroke-width="10"/>
  <circle cx="320" cy="235" r="78" fill="#0d9c96" opacity="0.14"/>
  <path d="M210 420l62-92c15-22 47-22 62 0l24 35 27-40c15-22 47-22 62 0l63 97H210z" fill="#0d9c96" opacity="0.2"/>
  <circle cx="320" cy="235" r="44" fill="#0d9c96" opacity="0.72"/>
  <path d="M320 214c-24 0-44 20-44 44 0 7 2 14 5 21 3-2 8-5 16-7 8-3 17-4 24-4s16 1 24 4c8 2 13 5 16 7 3-7 5-14 5-21 0-24-20-44-46-44zm-59 101c11 18 31 31 59 31s48-13 59-31c-3-1-7-4-13-7-14-6-30-10-46-10s-32 4-46 10c-6 3-10 6-13 7z" fill="#ffffff"/>
  <text x="320" y="515" text-anchor="middle" font-family="Arial, sans-serif" font-size="28" fill="#5d6c70">Image unavailable</text>
</svg>
